<?xml version="1.0" standalone="no"?>
<!DOCTYPE svg PUBLIC "-//W3C//DTD SVG 20010904//EN"
 "http://www.w3.org/TR/2001/REC-SVG-20010904/DTD/svg10.dtd">
<svg version="1.0" xmlns="http://www.w3.org/2000/svg"
 width="222.000000pt" height="227.000000pt" viewBox="0 0 222.000000 227.000000"
 preserveAspectRatio="xMidYMid meet">

<g transform="translate(0.000000,227.000000) scale(0.100000,-0.100000)"
fill="#000000" stroke="none">
<path d="M932 2245 c-442 -80 -781 -395 -900 -833 -23 -88 -26 -114 -26 -277
1 -163 3 -189 27 -280 117 -437 479 -763 924 -830 368 -56 724 68 983 341 119
125 200 262 254 428 14 43 26 80 26 82 0 2 -24 -24 -53 -58 -192 -226 -485
-338 -773 -294 -287 43 -520 214 -644 471 -70 145 -85 211 -84 380 1 122 4
151 28 228 39 130 88 220 178 328 97 115 289 232 436 264 95 21 106 24 101 29
-2 3 -45 12 -94 20 -107 19 -282 19 -383 1z"/>
</g>
</svg>
