<?xml version="1.0" standalone="no"?>
<!DOCTYPE svg PUBLIC "-//W3C//DTD SVG 20010904//EN"
 "http://www.w3.org/TR/2001/REC-SVG-20010904/DTD/svg10.dtd">
<svg version="1.0" xmlns="http://www.w3.org/2000/svg"
 width="800.000000pt" height="310.000000pt" viewBox="0 0 800.000000 310.000000"
 preserveAspectRatio="xMidYMid meet">

<g transform="translate(0.000000,310.000000) scale(0.100000,-0.100000)"
fill="#000000" stroke="none">
<path d="M4100 2109 c-134 -61 -192 -203 -139 -344 24 -63 112 -185 188 -260
45 -44 51 -54 51 -91 0 -49 20 -63 63 -43 23 10 31 7 85 -35 33 -25 66 -46 73
-46 7 0 36 18 65 40 37 28 63 40 87 40 39 0 57 15 57 48 0 18 25 51 85 113
135 140 187 233 187 336 1 111 -69 213 -170 249 -91 32 -222 5 -281 -59 l-23
-26 -50 39 c-27 22 -66 44 -86 50 -60 16 -142 12 -192 -11z m194 -5 c26 -9 66
-34 89 -55 l40 -39 35 34 c45 45 95 69 158 74 104 9 201 -46 248 -140 64 -128
9 -274 -168 -448 l-66 -64 0 55 c0 30 5 60 11 66 8 8 0 18 -26 38 l-36 28 -29
-28 -29 -27 -123 4 c-83 4 -135 11 -160 22 l-38 16 0 -82 -1 -83 -71 75 c-171
180 -213 310 -142 439 59 109 187 156 308 115z m256 -594 l0 -80 -115 0 c-153
0 -151 -18 2 -22 l118 -3 -25 -23 c-14 -13 -44 -37 -68 -54 l-42 -29 -43 32
c-99 76 -97 73 -97 171 l0 88 135 0 135 0 0 -80z"/>
<path d="M4376 1924 c8 -75 1 -82 -77 -68 l-50 9 30 35 29 35 -42 17 c-56 23
-66 22 -66 -6 0 -13 -11 -60 -23 -105 -13 -44 -21 -81 -16 -81 4 0 23 18 42
40 34 40 34 40 105 40 l72 0 0 -65 0 -65 -142 0 c-78 0 -139 -3 -135 -6 3 -3
84 -7 179 -7 l173 -1 3 124 c2 82 7 127 15 132 17 10 8 15 -51 26 l-52 9 6
-63z"/>
<path d="M4600 1903 c-1 -23 -35 -47 -72 -54 -31 -5 -14 -7 62 -7 l105 -1 -40
34 c-40 34 -55 42 -55 28z"/>
<path d="M4637 1735 c-16 -22 -26 -25 -85 -26 -55 -2 -46 -3 48 -11 142 -10
155 -7 109 32 -42 36 -49 36 -72 5z"/>
<path d="M2630 1190 c0 -18 -7 -20 -65 -20 -37 0 -65 -4 -65 -10 0 -6 27 -10
61 -10 52 0 62 -3 66 -20 3 -11 9 -20 13 -20 4 0 10 9 13 20 4 16 14 20 46 20
23 0 41 5 41 10 0 6 -20 10 -45 10 -38 0 -45 3 -45 20 0 11 -4 20 -10 20 -5 0
-10 -9 -10 -20z"/>
<path d="M4185 1200 c-3 -5 -28 -10 -56 -10 -27 0 -49 -4 -49 -10 0 -5 16 -10
35 -10 30 0 35 -3 35 -23 0 -13 -9 -32 -20 -42 -23 -21 -26 -35 -6 -35 16 0
42 37 52 74 8 33 30 34 38 1 8 -30 1 -45 -20 -45 -8 0 -14 -5 -14 -11 0 -6 12
-9 28 -7 25 3 27 7 30 56 2 42 0 52 -12 52 -9 0 -16 5 -16 10 0 6 -4 10 -9 10
-6 0 -13 -4 -16 -10z"/>
<path d="M4555 1201 c-69 -5 -77 -8 -60 -18 19 -12 19 -14 3 -23 -10 -6 -18
-21 -18 -33 1 -20 2 -21 14 -4 17 22 86 24 86 2 0 -8 5 -15 10 -15 6 0 10 7
10 15 0 11 11 15 40 15 27 0 43 -5 46 -15 9 -23 24 -18 24 9 0 18 -6 26 -22
28 -20 3 -21 4 -5 20 31 31 35 30 -128 19z m95 -26 c0 -9 -9 -15 -25 -15 -24
0 -32 10 -18 23 12 13 43 7 43 -8z m-70 -5 c0 -5 -11 -10 -25 -10 -14 0 -25 5
-25 10 0 6 11 10 25 10 14 0 25 -4 25 -10z"/>
<path d="M4865 1200 c-4 -6 13 -10 44 -10 28 0 51 5 51 10 0 6 -20 10 -44 10
-25 0 -48 -4 -51 -10z"/>
<path d="M4985 1200 c-4 -6 5 -10 19 -10 31 0 35 -20 6 -27 -18 -5 -20 -14
-20 -74 l0 -69 35 0 c19 0 35 5 35 10 0 6 -11 10 -25 10 -14 0 -25 5 -25 10 0
6 9 10 19 10 11 0 23 5 26 10 4 6 -5 10 -19 10 -14 0 -26 5 -26 10 0 6 16 10
35 10 34 0 35 -1 35 -40 0 -22 5 -40 10 -40 6 0 10 30 10 69 0 61 -3 70 -20
76 -28 9 -25 25 6 25 14 0 23 4 19 10 -3 6 -30 10 -60 10 -30 0 -57 -4 -60
-10z m83 -60 c7 0 10 -4 7 -10 -11 -17 -65 -12 -65 6 0 12 6 15 23 10 12 -3
28 -6 35 -6z"/>
<path d="M5416 1188 c8 -28 12 -33 20 -25 9 8 -6 47 -17 47 -6 0 -7 -10 -3
-22z"/>
<path d="M5664 1194 c3 -9 6 -18 6 -20 0 -3 4 -3 10 1 11 7 2 35 -12 35 -6 0
-7 -7 -4 -16z"/>
<path d="M5710 1195 c0 -8 5 -15 10 -15 6 0 10 7 10 15 0 8 -4 15 -10 15 -5 0
-10 -7 -10 -15z"/>
<path d="M5756 1185 c-13 -20 -25 -25 -56 -25 l-40 0 0 -50 c0 -47 2 -50 25
-50 16 0 25 -6 25 -15 0 -10 -10 -15 -30 -15 -16 0 -30 -4 -30 -10 0 -5 14
-10 30 -10 23 0 30 -4 30 -20 0 -11 4 -20 9 -20 5 0 11 9 14 20 3 14 14 20 31
20 35 0 33 18 -1 22 -27 3 -28 6 -28 57 0 33 5 56 12 58 8 3 11 -9 9 -41 -2
-33 1 -46 11 -46 9 0 13 17 13 59 0 33 3 66 6 75 10 25 -12 19 -30 -9z m-46
-50 c0 -8 -7 -15 -15 -15 -8 0 -15 7 -15 15 0 8 7 15 15 15 8 0 15 -7 15 -15z
m-2 -46 c-2 -6 -8 -10 -13 -10 -5 0 -11 4 -13 10 -2 6 4 11 13 11 9 0 15 -5
13 -11z"/>
<path d="M5820 1175 c0 -24 -5 -35 -15 -35 -8 0 -15 -4 -15 -10 0 -5 7 -10 15
-10 9 0 15 -9 15 -25 0 -14 5 -25 10 -25 6 0 10 11 10 24 0 18 7 25 30 30 17
3 30 10 30 16 0 5 -13 10 -30 10 -27 0 -30 3 -30 30 0 17 -4 30 -10 30 -5 0
-10 -16 -10 -35z"/>
<path d="M5860 1202 c0 -18 12 -42 21 -42 14 0 10 26 -6 40 -9 8 -15 8 -15 2z"/>
<path d="M2115 1190 c3 -5 26 -10 51 -10 42 0 44 -1 44 -30 0 -29 -2 -30 -44
-30 -25 0 -48 -4 -51 -10 -4 -6 12 -10 39 -10 37 0 46 -3 46 -18 0 -27 -26
-58 -60 -72 -25 -11 -43 -40 -24 -40 18 0 76 45 91 71 l17 29 29 -35 c42 -51
97 -76 97 -45 0 4 -14 13 -30 20 -30 12 -70 58 -70 79 0 6 19 11 45 11 25 0
45 5 45 10 0 6 -22 10 -50 10 l-50 0 0 40 0 40 -66 0 c-41 0 -63 -4 -59 -10z"/>
<path d="M2260 1190 c0 -5 18 -10 39 -10 22 0 43 5 46 10 4 6 -12 10 -39 10
-25 0 -46 -4 -46 -10z"/>
<path d="M2950 1185 c0 -8 -9 -15 -20 -15 -11 0 -20 -4 -20 -10 0 -5 7 -10 15
-10 19 0 19 -33 0 -96 -17 -57 -19 -74 -6 -74 12 0 37 84 49 163 7 46 6 57 -5
57 -7 0 -13 -7 -13 -15z"/>
<path d="M3356 1185 c-3 -8 -17 -15 -31 -15 -14 0 -25 -4 -25 -10 0 -6 42 -10
105 -10 63 0 105 4 105 10 0 6 -28 10 -65 10 -51 0 -65 3 -65 15 0 8 -4 15 -9
15 -5 0 -11 -7 -15 -15z"/>
<path d="M5268 1108 c-2 -51 -6 -98 -9 -104 -2 -7 1 -14 6 -15 6 -2 11 7 13
21 2 14 6 32 9 40 3 8 5 43 5 78 -1 45 2 62 11 59 8 -2 13 -35 15 -95 2 -76 0
-93 -13 -98 -23 -9 -18 -26 8 -22 21 3 22 7 22 113 l0 110 -32 3 -31 3 -4 -93z"/>
<path d="M5360 1192 c0 -18 12 -42 21 -42 14 0 10 26 -6 40 -9 8 -15 8 -15 2z"/>
<path d="M5472 1175 c-10 -21 -9 -25 3 -25 8 0 15 4 15 9 0 5 3 16 6 25 10 26
-12 18 -24 -9z"/>
<path d="M3755 1181 c-55 -23 -82 -108 -51 -156 35 -53 80 -20 102 72 19 81
18 93 -8 92 -13 0 -32 -4 -43 -8z m22 -101 c-9 -33 -18 -46 -35 -48 -50 -7
-31 108 20 127 19 7 23 5 26 -13 1 -11 -3 -41 -11 -66z"/>
<path d="M3840 1178 c0 -6 11 -19 25 -30 18 -14 25 -29 25 -54 0 -49 -14 -71
-55 -84 -36 -12 -47 -30 -19 -30 30 0 81 31 93 56 17 38 13 88 -9 116 -20 27
-60 43 -60 26z"/>
<path d="M4260 1180 c0 -5 14 -10 30 -10 17 0 30 5 30 10 0 6 -13 10 -30 10
-16 0 -30 -4 -30 -10z"/>
<path d="M2990 1160 c0 -5 11 -10 25 -10 14 0 25 5 25 10 0 6 -11 10 -25 10
-14 0 -25 -4 -25 -10z"/>
<path d="M4870 1140 c0 -11 5 -20 10 -20 6 0 10 7 10 16 0 10 7 14 23 12 14
-2 22 -10 22 -23 0 -15 -9 -21 -35 -26 -26 -4 -31 -7 -18 -13 9 -4 29 -6 45
-4 24 3 28 8 31 41 l3 37 -45 0 c-39 0 -46 -3 -46 -20z"/>
<path d="M4095 1130 c-18 -20 -15 -38 4 -25 15 9 33 45 23 45 -5 0 -17 -9 -27
-20z"/>
<path d="M4260 1145 c0 -15 34 -55 46 -55 20 0 17 14 -9 38 -23 21 -37 28 -37
17z"/>
<path d="M2656 1099 c-22 -16 -67 -38 -100 -48 -40 -13 -56 -21 -45 -26 9 -3
36 1 60 9 58 21 59 21 59 -14 0 -25 -4 -30 -25 -30 -14 0 -25 -4 -25 -10 0 -5
16 -10 35 -10 35 0 35 0 35 46 0 38 5 49 30 71 28 23 39 44 23 42 -5 0 -26
-14 -47 -30z"/>
<path d="M3027 1123 c-15 -14 -5 -18 43 -15 27 2 50 8 50 13 0 10 -83 12 -93
2z"/>
<path d="M3345 1099 c-9 -40 -1 -47 34 -26 52 31 101 20 101 -22 0 -33 -32
-51 -90 -51 -23 0 -40 -5 -40 -11 0 -19 116 -6 140 16 25 23 26 67 0 90 -15
14 -31 17 -70 13 -38 -4 -50 -2 -50 8 0 26 -18 14 -25 -17z"/>
<path d="M5434 1115 c-4 -10 -13 -13 -26 -9 -17 5 -18 4 -6 -15 10 -17 10 -25
1 -41 -7 -11 -9 -21 -3 -25 5 -3 12 -1 15 5 4 6 15 8 26 5 20 -7 28 18 9 30
-6 3 -6 15 0 30 6 15 6 27 0 30 -6 4 -13 -1 -16 -10z"/>
<path d="M1765 1112 c-13 -3 0 -11 40 -23 67 -21 101 -24 110 -9 3 6 -4 10
-17 10 -13 0 -43 6 -68 13 -25 7 -54 11 -65 9z"/>
<path d="M4497 1095 c-11 -16 -14 -25 -6 -25 12 0 38 29 39 43 0 14 -15 6 -33
-18z"/>
<path d="M4542 1093 c2 -23 -3 -31 -29 -43 -43 -20 -41 -27 7 -27 22 0 37 4
34 8 -3 5 11 9 30 9 20 0 36 -4 36 -10 0 -10 -91 -40 -122 -40 -10 0 -18 -5
-18 -11 0 -8 13 -9 43 -4 52 10 79 10 140 0 30 -5 47 -4 47 2 0 6 -19 13 -41
17 l-42 7 22 23 c27 28 19 36 -38 37 -47 1 -47 3 2 13 25 6 40 36 17 36 -5 0
-10 -4 -10 -10 0 -16 -50 -12 -56 5 -10 25 -26 17 -22 -12z"/>
<path d="M4660 1113 c0 -5 6 -18 14 -29 17 -22 35 -11 20 13 -12 19 -34 29
-34 16z"/>
<path d="M5360 1044 c0 -65 2 -75 16 -70 9 3 29 6 45 6 16 0 29 5 29 10 0 6
-16 10 -35 10 l-35 0 0 60 c0 33 -4 60 -10 60 -6 0 -10 -32 -10 -76z"/>
<path d="M5475 1109 c-9 -24 -2 -129 10 -132 13 -3 18 92 6 123 -7 20 -10 22
-16 9z"/>
<path d="M6135 1091 c54 -21 101 -26 109 -12 6 9 -26 16 -114 26 l-45 5 50
-19z"/>
<path d="M5856 1071 c-9 -16 -29 -40 -46 -54 -16 -14 -30 -28 -30 -31 0 -12
24 -6 41 10 16 14 18 14 29 -5 6 -12 17 -21 25 -21 18 0 30 39 16 53 -8 8 -11
6 -11 -8 0 -15 -3 -16 -12 -7 -9 9 -8 20 5 47 20 41 20 45 7 45 -5 0 -16 -13
-24 -29z"/>
<path d="M3003 1053 c-3 -10 -8 -21 -10 -25 -2 -4 5 -16 17 -28 22 -22 103
-29 115 -10 4 6 -11 10 -37 10 -54 0 -73 12 -65 39 6 26 -11 39 -20 14z"/>
<path d="M4880 1051 c0 -12 5 -21 10 -21 6 0 10 6 10 14 0 8 -4 18 -10 21 -5
3 -10 -3 -10 -14z"/>
<path d="M4925 1041 c-5 -22 -14 -31 -36 -36 -16 -4 -26 -11 -23 -16 5 -9 38
-6 87 7 20 6 23 24 3 24 -9 0 -12 8 -8 25 6 35 -15 31 -23 -4z"/>
<path d="M4170 1051 c0 -12 39 -25 48 -16 7 7 -17 25 -35 25 -7 0 -13 -4 -13
-9z"/>
<path d="M4270 1042 c0 -17 30 -62 41 -62 16 0 10 18 -16 47 -13 15 -25 22
-25 15z"/>
<path d="M4091 1014 c-6 -15 -9 -29 -6 -33 8 -7 35 28 35 46 0 22 -16 15 -29
-13z"/>
<path d="M4140 1000 c0 -30 1 -30 54 -30 40 0 55 4 60 16 9 23 -5 40 -16 20
-6 -10 -22 -16 -43 -16 -28 0 -35 4 -35 20 0 11 -4 20 -10 20 -5 0 -10 -13
-10 -30z"/>
<path d="M4981 996 c-16 -9 -20 -16 -12 -20 11 -7 61 18 61 29 0 9 -25 4 -49
-9z"/>
<path d="M5060 1000 c0 -14 38 -32 45 -21 3 6 -3 15 -14 20 -24 14 -31 14 -31
1z"/>
</g>
</svg>
