<?xml version="1.0" standalone="no"?>
<!DOCTYPE svg PUBLIC "-//W3C//DTD SVG 20010904//EN"
 "http://www.w3.org/TR/2001/REC-SVG-20010904/DTD/svg10.dtd">
<svg version="1.0" xmlns="http://www.w3.org/2000/svg"
 width="744.000000pt" height="1052.000000pt" viewBox="0 0 744.000000 1052.000000"
 preserveAspectRatio="xMidYMid meet">

<g transform="translate(0.000000,1052.000000) scale(0.100000,-0.100000)"
fill="#000000" stroke="none">
<path d="M4010 7973 c-47 -17 -99 -110 -148 -263 -79 -248 -115 -632 -72 -782
38 -134 187 -170 275 -67 100 119 186 502 189 840 1 161 0 166 -24 202 -35 52
-86 77 -151 76 -30 0 -61 -3 -69 -6z"/>
<path d="M2252 7865 c-39 -49 -57 -141 -57 -290 0 -119 3 -151 23 -215 53
-167 139 -302 294 -457 116 -118 142 -135 206 -136 39 0 49 4 74 32 38 42 37
101 -2 250 -53 201 -156 427 -278 611 -66 99 -165 202 -210 218 -28 10 -33 8
-50 -13z"/>
<path d="M5580 6987 c-60 -32 -415 -272 -482 -326 -82 -66 -175 -171 -184
-207 -21 -84 70 -163 188 -164 144 0 365 132 599 358 125 120 145 153 129 212
-12 45 -74 115 -116 130 -36 14 -105 12 -134 -3z"/>
<path d="M1161 6851 c-52 -96 169 -352 457 -531 243 -150 463 -215 545 -161
55 36 74 88 56 153 -15 58 -130 175 -244 250 -215 141 -580 293 -731 305 -66
5 -73 4 -83 -16z"/>
<path d="M3150 6737 c-170 -70 -401 -246 -612 -466 -276 -287 -407 -641 -408
-1097 0 -399 111 -671 379 -926 90 -86 228 -180 330 -225 88 -39 259 -82 367
-92 164 -15 449 10 629 55 143 35 350 113 490 183 352 178 592 399 710 655 67
145 77 203 82 487 9 441 -29 595 -192 792 -112 135 -273 238 -455 290 -395
114 -745 1 -1106 -358 -207 -205 -296 -357 -324 -555 -19 -137 10 -250 124
-485 119 -243 171 -291 345 -316 95 -13 304 -7 391 11 168 36 327 165 407 330
113 232 97 436 -46 579 -58 58 -138 91 -250 104 -88 10 -102 9 -169 -12 -77
-23 -140 -69 -168 -122 -25 -49 -17 -113 26 -221 42 -105 50 -148 26 -148 -23
0 -135 88 -156 123 -66 107 -81 235 -38 328 14 30 37 69 53 87 62 74 258 188
400 232 106 34 263 39 353 11 88 -27 172 -83 254 -170 56 -59 66 -75 71 -116
16 -115 -5 -307 -49 -442 -33 -102 -103 -243 -159 -318 -189 -252 -446 -435
-700 -500 -126 -32 -301 -43 -412 -25 -412 66 -678 426 -632 854 39 353 238
675 551 887 87 59 133 111 175 197 35 69 38 83 41 177 5 124 -12 169 -81 210
-59 34 -166 35 -247 2z"/>
<path d="M6205 5693 c-234 -21 -524 -81 -681 -142 -137 -53 -176 -88 -176
-156 0 -46 21 -76 78 -116 73 -50 134 -69 219 -69 182 0 676 104 832 175 66
30 83 61 83 152 0 78 -21 131 -60 150 -24 12 -191 15 -295 6z"/>
<path d="M1225 5613 c-146 -30 -252 -68 -295 -105 -54 -45 -68 -133 -29 -181
69 -89 375 -156 643 -143 233 12 366 48 442 118 73 68 67 147 -17 207 -51 38
-196 85 -302 100 -74 10 -399 14 -442 4z"/>
<path d="M5220 4698 c-60 -31 -82 -65 -88 -134 -6 -78 13 -111 102 -172 240
-164 765 -450 861 -468 74 -14 136 63 143 181 3 50 0 65 -18 87 -20 27 -356
271 -498 363 -95 61 -243 131 -317 150 -82 21 -133 19 -185 -7z"/>
<path d="M1955 4445 c-27 -8 -99 -39 -160 -69 -256 -129 -477 -353 -437 -441
65 -143 433 -29 677 209 89 87 128 152 129 213 1 38 -4 49 -32 74 -26 24 -41
29 -80 28 -26 0 -69 -7 -97 -14z"/>
<path d="M4567 4020 c-46 -14 -94 -56 -117 -106 -18 -37 -21 -56 -16 -99 12
-109 128 -373 232 -532 135 -208 330 -403 403 -403 87 0 183 72 196 148 6 37
-1 58 -60 194 -114 259 -222 476 -282 566 -124 188 -244 266 -356 232z"/>
<path d="M2868 3850 c-73 -22 -185 -129 -266 -253 -106 -164 -207 -414 -232
-572 -29 -183 44 -269 173 -204 167 85 407 485 466 777 25 125 1 221 -63 247
-39 17 -40 17 -78 5z"/>
<path d="M3715 3676 c-36 -39 -67 -125 -92 -259 -14 -72 -18 -147 -18 -347 0
-269 7 -323 54 -433 32 -74 60 -97 122 -97 46 0 55 4 84 34 67 72 109 225 126
461 23 332 -51 608 -177 661 -49 21 -63 18 -99 -20z"/>
</g>
</svg>
